
<svg xmlns="http://www.w3.org/2000/svg" width="238" height="209" viewBox="0 0 238 209" fill="none">
<path d="M145.887 85.69L140.726 80.5234C139.5 79.2958 139.5 77.3057 140.72 76.0839C141.943 74.8596 143.926 74.8596 145.155 76.0898L150.316 81.2564L155.477 76.0898C156.703 74.8623 158.691 74.8621 159.911 76.0839C161.134 77.3082 161.134 79.2932 159.905 80.5234L154.745 85.69L159.905 90.8566C161.132 92.0842 161.132 94.0742 159.911 95.296C158.688 96.5203 156.706 96.5204 155.477 95.2902L150.316 90.1236L145.155 95.2902C143.929 96.5177 141.941 96.5178 140.72 95.296C139.497 94.0717 139.497 92.0868 140.726 90.8566L145.887 85.69ZM54.0274 85.69L48.8664 80.5234C47.6402 79.2958 47.6401 77.3057 48.8606 76.0839C50.0835 74.8596 52.0663 74.8596 53.2951 76.0898L58.4561 81.2564L63.6171 76.0898C64.8433 74.8623 66.8312 74.8621 68.0517 76.0839C69.2747 77.3082 69.2747 79.2932 68.0459 80.5234L62.8849 85.69L68.0459 90.8566C69.272 92.0842 69.2722 94.0742 68.0517 95.296C66.8288 96.5203 64.846 96.5204 63.6171 95.2902L58.4561 90.1236L53.2951 95.2902C52.069 96.5177 50.081 96.5178 48.8606 95.296C47.6376 94.0717 47.6376 92.0868 48.8664 90.8566L54.0274 85.69ZM202.509 119.13C202.509 117.399 203.911 115.995 205.64 115.995C207.37 115.995 208.772 117.399 208.772 119.13V175.556C208.772 182.482 203.157 188.1 196.243 188.1H127.185L131.613 186.264L113.244 204.653C108.352 209.551 100.422 209.552 95.5277 204.653L77.1587 186.264L81.5874 188.1H12.5291C5.60949 188.1 0 182.482 0 175.556V12.5441C0 5.61776 5.61444 0 12.5291 0H196.243C203.162 0 208.772 5.61801 208.772 12.5441V29.26C208.772 30.9914 207.37 32.395 205.64 32.395C203.911 32.395 202.509 30.9914 202.509 29.26V12.5441C202.509 9.08088 199.703 6.27 196.243 6.27H12.5291C9.07505 6.27 6.26316 9.07902 6.26316 12.5441V175.556C6.26316 179.019 9.06849 181.83 12.5291 181.83H81.5874L99.9564 200.219C102.405 202.67 106.369 202.668 108.816 200.219L127.185 181.83H196.243C199.697 181.83 202.509 179.021 202.509 175.556V119.13ZM74.114 131.67C74.114 129.939 75.5215 128.535 77.2416 128.535H131.53C133.258 128.535 134.658 129.942 134.658 131.67C134.658 133.401 133.25 134.805 131.53 134.805H77.2416C75.5143 134.805 74.114 133.398 74.114 131.67Z" fill="#3B4340"/>
<path fill-rule="evenodd" clip-rule="evenodd" d="M215.035 108.68C225.412 108.68 238 104.365 238 85.3192C238 66.2736 217.123 39.71 215.035 39.71C212.947 39.71 192.07 66.2736 192.07 85.3192C192.07 104.365 204.658 108.68 215.035 108.68Z" fill="#4A90E2"/>
</svg>